
<svg width="1024" height="1024" viewBox="0 0 1024 1024" fill="none" xmlns="http://www.w3.org/2000/svg">
  <rect width="1024" height="1024" rx="220" fill="#065F46"/>
  <circle cx="512" cy="512" r="420" stroke="#FBBF24" stroke-width="20" stroke-dasharray="40 20"/>
  <path d="M512 180C328.645 180 180 328.645 180 512C180 695.355 328.645 844 512 844C695.355 844 844 695.355 844 512C844 450.418 827.24 392.756 798.114 343.328C786.19 323.1 759.51 318.592 741.458 333.682C704.972 364.18 658.552 382.5 608 382.5C492.016 382.5 398 288.484 398 172.5C398 141.696 404.686 112.446 416.71 86.1558C424.814 68.4354 411.536 48.406 392.298 49.3326C275.484 54.9582 180 151.484 180 270" fill="#FBBF24" fill-opacity="0.1"/>
  <path d="M512 250L540 330L620 330L555 380L580 460L512 410L444 460L469 380L404 330L484 330L512 250Z" fill="#FBBF24"/>
  <path d="M350 700C350 650 400 620 512 620C624 620 674 650 674 700V800H350V700Z" fill="white" fill-opacity="0.9"/>
  <path d="M480 500V620M544 500V620M450 500H574" stroke="white" stroke-width="15" stroke-linecap="round"/>
  <circle cx="512" cy="460" r="40" fill="white"/>
</svg>
